<?xml version="1.0" encoding="iso-8859-1"?>
<!-- Uploaded to: SVG Repo, www.svgrepo.com, Generator: SVG Repo Mixer Tools -->
<svg height="800px" width="800px" version="1.1" id="Layer_1" xmlns="http://www.w3.org/2000/svg" xmlns:xlink="http://www.w3.org/1999/xlink" 
	 viewBox="0 0 512.002 512.002" xml:space="preserve">
<circle style="fill:#00C3FF;" cx="256.001" cy="300.138" r="211.862"/>
<g>
	<circle style="fill:#00AAF0;" cx="361.932" cy="414.897" r="35.31"/>
	<path style="fill:#00AAF0;" d="M353.105,450.207c-114.055,0-207.017-90.137-211.639-203.058c14.52-0.122,26.26-11.91,26.26-26.46
		c0-13.028-9.426-23.801-21.818-26.013c7.758-36.932,25.001-70.372,49.252-97.49c-87.345,26.15-151.02,107.096-151.02,202.951
		C44.139,417.146,138.993,512,256.001,512c62.776,0,119.15-27.326,157.945-70.705C394.67,447.066,374.258,450.207,353.105,450.207z"
		/>
</g>
<path style="fill:#E4EAF8;" d="M467.639,308.966c0.12-2.931,0.224-5.867,0.224-8.828s-0.104-5.897-0.224-8.828h-79.353
	c-0.767-34.919-6.051-67.846-14.873-97.103h66.038c-3.52-6.083-7.33-11.975-11.418-17.655h-60.539
	c-12.275-33.154-29.352-60.428-49.483-79.033c-16.916-5.171-34.761-8.149-53.181-8.913v-0.107c-2.931-0.12-5.867-0.224-8.828-0.224
	s-5.897,0.104-8.828,0.224v0.108c-18.42,0.762-36.266,3.742-53.181,8.913c-20.131,18.604-37.209,45.879-49.483,79.033h-60.54
	c-4.089,5.681-7.898,11.572-11.418,17.655h66.038c-8.822,29.258-14.108,62.185-14.873,97.103H44.363
	c-0.12,2.931-0.224,5.867-0.224,8.828s0.104,5.897,0.224,8.828h79.354c0.767,34.919,6.052,67.846,14.873,97.103H72.553
	c3.52,6.083,7.33,11.975,11.418,17.655h60.537c12.275,33.154,29.353,60.428,49.483,79.033c16.916,5.171,34.761,8.149,53.181,8.913
	v0.107c2.931,0.12,5.867,0.224,8.828,0.224s5.897-0.104,8.828-0.224v-0.109c18.42-0.762,36.266-3.742,53.181-8.913
	c20.131-18.604,37.208-45.879,49.483-79.033h60.538c4.088-5.681,7.897-11.572,11.418-17.655H373.41
	c8.822-29.258,14.106-62.185,14.873-97.103h79.356V308.966z M349.123,176.552h-84.295V88.97
	C299.49,93.873,329.886,127.288,349.123,176.552z M247.174,88.97v87.582h-84.295C182.116,127.288,212.512,93.873,247.174,88.97z
	 M156.682,194.207h90.492v97.103h-105.81C142.151,256.046,147.636,223.001,156.682,194.207z M141.364,308.966h105.81v97.103h-90.492
	C147.636,377.274,142.151,344.23,141.364,308.966z M162.879,423.724h84.295v87.582C212.512,506.403,182.116,472.988,162.879,423.724
	z M264.829,511.306v-87.582h84.295C329.886,472.988,299.49,506.403,264.829,511.306z M355.32,406.069h-90.492v-97.103h105.811
	C369.852,344.23,364.366,377.274,355.32,406.069z M264.829,291.31v-97.103h90.492c9.046,28.794,14.531,61.839,15.319,97.103H264.829
	z"/>
<path style="fill:#D5DCED;" d="M379.146,384.244c-5.033-2.833-10.75-4.577-16.925-4.628c-2.01,9.118-4.25,18.015-6.901,26.454
	h-27.449c-0.735,2.837-1.248,5.761-1.248,8.828c0,3.066,0.513,5.991,1.248,8.828h21.254c-2.617,6.702-5.442,13.111-8.455,19.197
	c4.499,3.42,9.79,5.773,15.609,6.716c4.066-8.171,7.838-16.794,11.214-25.913h28.502c0.735-2.837,1.248-5.761,1.248-8.828
	s-0.513-5.991-1.248-8.828h-22.583C375.541,399.007,377.441,391.71,379.146,384.244z"/>
<circle style="fill:#FFF082;" cx="361.932" cy="414.897" r="17.655"/>
<path style="fill:#D5DCED;" d="M356.041,450.099c-0.984,0.013-1.949,0.108-2.936,0.108c-5.357,0-10.651-0.266-15.908-0.657
	c-18.836,34.904-44.184,57.764-72.367,61.758v-80.353c-5.553-2.55-10.937-5.393-16.22-8.396c-8.681-4.938-17.01-10.417-24.872-16.49
	h-67.055c-9.046-28.794-14.531-61.839-15.318-97.103h11.981c-2.044-5.78-3.885-11.657-5.428-17.655h-6.553
	c0.203-9.087,0.742-18.009,1.549-26.767c-0.707-5.729-1.12-11.544-1.379-17.4c1.223-0.026,2.409-0.186,3.59-0.362
	c2.412-17.038,5.9-33.239,10.402-48.335c-2.874-1.849-6.133-3.135-9.618-3.772c7.758-36.93,25.001-70.37,49.251-97.486
	c-0.433,0.129-0.843,0.307-1.274,0.438c-20.083,18.602-37.124,45.832-49.376,78.925H84.09c-4.092,5.678-7.881,11.575-11.403,17.655
	h65.905c-8.822,29.258-14.108,62.185-14.873,97.103H44.504c-0.121,2.943-0.365,5.855-0.365,8.828c0,2.961,0.104,5.897,0.224,8.828
	h79.354c0.767,34.919,6.052,67.845,14.873,97.103H72.553c3.52,6.083,7.33,11.975,11.418,17.655h60.537
	c12.275,33.154,29.353,60.428,49.483,79.033l0,0c16.916,5.171,34.761,8.149,53.181,8.913v0.107c2.931,0.12,5.867,0.224,8.828,0.224
	c2.963,0,5.896-0.119,8.828-0.239v-0.096c18.457-0.775,36.324-3.801,53.271-8.996C332.551,489.287,345.39,471.384,356.041,450.099z
	 M162.879,423.724h84.295v87.582C212.512,506.403,182.116,472.988,162.879,423.724z"/>
<path style="fill:#FFDC64;" d="M141.242,0c43.878,0,79.448,35.57,79.448,79.448c0,52.966-61.793,88.276-79.448,141.241
	c-17.655-52.966-79.448-88.276-79.448-141.241C61.794,35.57,97.364,0,141.242,0z"/>
<path style="fill:#FFC850;" d="M141.242,0C97.364,0,61.794,35.57,61.794,79.448c0,52.966,61.793,88.276,79.448,141.241
	c-7.847-52.966-35.31-88.276-35.31-141.241C105.932,35.57,121.741,0,141.242,0z"/>
<path style="fill:#FFFFFF;" d="M150.07,77.484V54.325c5.478,1.754,8.828,4.863,8.828,7.192c0,4.879,3.948,8.828,8.828,8.828
	c4.879,0,8.828-3.948,8.828-8.828c0-12.414-11.115-22.464-26.483-25.316v-0.89c0-4.879-3.948-8.828-8.828-8.828
	c-4.879,0-8.828,3.948-8.828,8.828v0.89c-15.368,2.852-26.483,12.903-26.483,25.316c0,17.374,14.579,24.587,26.483,28.723v23.159
	c-5.478-1.754-8.828-4.863-8.828-7.192c0-4.879-3.948-8.828-8.828-8.828c-4.879,0-8.828,3.948-8.828,8.828
	c0,12.414,11.115,22.464,26.483,25.316v0.89c0,4.879,3.948,8.828,8.828,8.828c4.879,0,8.828-3.948,8.828-8.828v-0.89
	c15.368-2.852,26.483-12.904,26.483-25.316C176.553,88.833,161.974,81.62,150.07,77.484z M123.587,61.517
	c0-2.329,3.35-5.438,8.828-7.192v16.904C125.24,67.975,123.587,65.188,123.587,61.517z M150.07,113.399V96.495
	c7.175,3.255,8.828,6.041,8.828,9.711C158.898,108.536,155.548,111.645,150.07,113.399z"/>
</svg>