<?xml version="1.0" standalone="no"?>
<!DOCTYPE svg PUBLIC "-//W3C//DTD SVG 20010904//EN"
 "http://www.w3.org/TR/2001/REC-SVG-20010904/DTD/svg10.dtd">
<svg version="1.0" xmlns="http://www.w3.org/2000/svg"
 width="300.000000pt" height="241.000000pt" viewBox="0 0 300.000000 241.000000"
 preserveAspectRatio="xMidYMid meet">
<metadata>
Created by potrace 1.10, written by Peter Selinger 2001-2011
</metadata>
<g transform="translate(0.000000,241.000000) scale(0.100000,-0.100000)"
fill="#000000" stroke="none">
<path d="M1110 2384 c-36 -7 -78 -18 -94 -24 -16 -5 -43 -10 -61 -10 -17 0
-58 -13 -91 -29 -32 -15 -79 -34 -103 -40 -122 -35 -239 -135 -395 -340 -111
-147 -192 -241 -207 -241 -5 0 -9 11 -9 25 0 14 -4 25 -10 25 -5 0 -9 -19 -8
-42 2 -54 -26 -149 -48 -165 -19 -14 -11 -48 10 -40 18 7 13 -37 -19 -183 -13
-58 -27 -127 -31 -153 -12 -87 -19 -38 -19 139 0 95 -3 174 -8 174 -7 0 -10
-168 -8 -477 1 -286 51 -499 142 -615 29 -36 33 -49 40 -135 6 -73 15 -110 38
-159 17 -35 35 -64 40 -64 17 0 13 16 -14 69 -21 43 -50 169 -41 178 2 2 30
-24 62 -58 66 -69 159 -139 218 -163 46 -19 56 -20 55 -3 0 6 -31 27 -70 45
-74 36 -227 170 -255 224 -8 16 -24 75 -34 130 -25 127 -65 276 -96 352 -20
49 -24 77 -24 161 0 56 -5 106 -10 111 -8 8 0 62 24 175 19 90 40 196 45 234
21 139 35 172 98 238 33 34 101 117 152 184 123 162 171 215 248 269 99 71
146 85 282 85 77 0 129 -5 156 -15 52 -20 125 -21 125 -2 0 9 -20 15 -62 20
-75 7 -93 21 -41 29 41 7 131 -4 192 -24 81 -25 376 -175 406 -206 68 -70 77
-86 116 -179 39 -98 67 -139 100 -149 30 -10 109 -177 129 -273 10 -48 37
-132 60 -187 34 -82 42 -117 49 -195 4 -52 13 -105 19 -117 17 -31 15 -308 -3
-446 -19 -146 -54 -268 -110 -385 -49 -101 -54 -125 -29 -120 22 4 86 131 120
233 51 157 65 255 71 490 4 157 9 224 18 235 7 8 27 43 44 77 32 65 53 83 94
83 46 0 50 17 44 188 -4 130 -9 172 -31 245 -14 48 -26 96 -26 108 0 45 -60
99 -110 99 -20 0 -21 4 -15 43 10 61 25 88 65 115 62 42 167 17 267 -65 118
-95 183 -280 183 -516 0 -177 -37 -305 -108 -380 l-27 -28 28 10 c45 17 117
13 164 -10 62 -30 96 -78 100 -142 5 -69 -11 -96 -77 -131 -43 -23 -65 -29
-107 -27 -64 2 -95 -12 -91 -42 3 -20 8 -22 69 -19 59 3 74 0 142 -33 57 -26
78 -42 83 -60 9 -36 2 -56 -29 -79 -23 -17 -40 -20 -110 -18 -45 1 -103 4
-129 8 -39 5 -48 3 -48 -10 0 -20 59 -36 138 -36 60 0 66 -2 114 -42 91 -76
109 -98 106 -131 -6 -56 -112 -90 -238 -75 -52 6 -266 62 -327 85 -7 3 -13 -1
-13 -8 0 -19 62 -139 72 -139 15 0 8 31 -17 70 -14 22 -25 41 -25 44 0 2 53
-12 118 -31 164 -48 245 -59 317 -45 68 14 145 56 145 79 0 39 -43 102 -101
147 -58 45 -67 66 -29 66 11 0 35 14 55 31 67 59 34 126 -84 173 -30 12 -56
26 -58 32 -2 6 18 20 45 32 86 39 116 95 100 182 -16 85 -106 160 -195 160
-23 0 -43 3 -43 6 0 4 9 21 19 38 42 68 64 182 64 326 -1 288 -92 487 -265
581 -55 29 -72 34 -135 34 -68 0 -74 -2 -107 -34 -37 -35 -56 -91 -56 -160 0
-31 7 -49 31 -76 17 -19 38 -35 45 -35 8 0 25 -10 38 -23 44 -44 86 -290 71
-416 -6 -54 -10 -61 -28 -61 -44 0 -81 -35 -116 -108 -19 -40 -38 -72 -42 -72
-13 0 -18 44 -24 199 -8 189 -21 231 -118 365 -35 49 -117 223 -117 249 0 52
-19 105 -49 140 -16 17 -32 42 -36 55 -4 13 -29 47 -56 75 -28 29 -57 67 -66
85 -8 18 -29 43 -45 55 -16 12 -53 45 -83 74 -93 90 -185 123 -334 122 -53 0
-125 -7 -161 -15z m350 -41 c83 -38 126 -78 159 -145 16 -34 28 -64 27 -66 -2
-1 -77 34 -167 78 -90 44 -191 86 -224 95 -66 17 -181 20 -218 6 -19 -8 -27
-6 -31 4 -4 10 7 18 36 25 91 25 128 29 248 26 100 -2 134 -7 170 -23z m229
-168 c31 -36 41 -68 18 -59 -7 2 -19 14 -26 27 -8 12 -21 32 -29 45 -23 35 3
26 37 -13z m65 -107 c27 -37 18 -57 -9 -23 -14 17 -25 33 -25 38 0 15 19 6 34
-15z m133 -178 c27 -50 33 -124 8 -100 -18 19 -65 132 -58 143 9 15 27 0 50
-43z m408 -175 c24 -23 33 -45 19 -45 -14 0 -72 41 -78 55 -9 25 32 18 59 -10z
m-184 -310 c21 -44 32 -85 35 -128 l4 -62 -26 55 c-32 67 -74 195 -74 224 0
20 0 20 15 -2 9 -12 30 -51 46 -87z m-2027 -662 c37 -113 89 -323 82 -330 -8
-9 -55 83 -75 147 -33 105 -63 290 -47 290 2 0 20 -48 40 -107z"/>
<path d="M2443 2243 c-6 -27 -15 -56 -19 -67 -5 -13 -3 -17 6 -14 13 4 40 78
40 111 0 34 -15 16 -27 -30z"/>
<path d="M2072 2142 c2 -4 14 -33 27 -65 24 -55 49 -80 36 -34 -12 39 -48 107
-58 107 -5 0 -7 -4 -5 -8z"/>
<path d="M2863 2011 c-33 -28 -41 -41 -24 -41 13 0 71 50 71 61 0 15 -13 10
-47 -20z"/>
<path d="M569 1836 c-58 -20 -105 -53 -153 -107 -62 -69 -90 -130 -94 -210 -4
-56 0 -74 23 -120 32 -65 95 -133 150 -162 32 -17 57 -22 125 -22 76 0 92 3
152 33 163 80 239 246 173 379 -27 54 -172 195 -220 213 -36 14 -112 12 -156
-4z m129 -15 c46 -13 196 -152 221 -205 45 -92 19 -198 -68 -279 -70 -65 -123
-89 -209 -95 -127 -8 -215 47 -274 175 -25 53 -29 72 -24 110 9 67 39 126 92
183 54 57 98 87 157 106 52 16 64 16 105 5z"/>
<path d="M640 1592 c-24 -24 -30 -39 -30 -72 0 -45 11 -54 69 -54 43 0 81 41
81 88 0 38 -14 53 -58 62 -26 5 -36 1 -62 -24z m73 -34 c7 -20 -12 -48 -33
-48 -25 0 -33 15 -20 40 12 22 46 27 53 8z"/>
<path d="M1469 1796 c-95 -34 -194 -131 -253 -249 -53 -105 -54 -123 -14 -182
147 -220 550 -145 592 111 8 47 -3 81 -62 184 -20 36 -42 78 -48 94 -18 50
-131 72 -215 42z m166 -26 c33 -13 23 -30 -16 -30 -20 0 -29 -4 -27 -12 3 -8
18 -12 39 -10 33 3 35 1 87 -90 58 -103 63 -137 33 -203 -25 -56 -76 -104
-141 -134 -45 -21 -70 -25 -141 -26 -76 0 -92 3 -144 30 -63 32 -125 100 -125
138 0 39 72 166 131 231 75 81 141 116 220 116 32 0 70 -4 84 -10z"/>
<path d="M1408 1623 c-46 -29 -53 -59 -25 -112 23 -44 26 -46 65 -44 66 3 82
16 82 69 0 38 -5 50 -32 75 -37 33 -52 35 -90 12z m58 -24 c7 -12 -12 -29 -33
-29 -28 0 -11 36 19 39 4 1 10 -4 14 -10z m18 -57 c9 -15 -11 -34 -34 -30 -32
4 -37 25 -8 31 13 2 26 5 30 6 4 0 9 -3 12 -7z"/>
<path d="M1710 1040 c0 -5 7 -13 16 -18 15 -9 15 -20 -6 -133 -57 -315 -121
-432 -291 -532 -110 -64 -183 -82 -339 -81 -124 0 -143 3 -232 32 -69 23 -103
40 -118 59 -26 34 -26 53 1 46 17 -5 20 -2 17 13 -2 12 -13 20 -28 22 -30 3
-90 -32 -90 -53 0 -17 21 -20 37 -4 7 7 16 0 31 -25 25 -42 54 -58 169 -91
229 -67 462 -29 632 103 132 102 189 223 236 502 10 58 22 109 26 114 4 4 15
-4 24 -18 20 -30 35 -34 35 -10 0 25 -68 84 -96 84 -13 0 -24 -4 -24 -10z"/>
<path d="M2750 820 c0 -5 14 -11 30 -12 17 -1 38 -2 47 -2 9 -1 18 5 21 12 2
8 -11 12 -47 12 -28 0 -51 -4 -51 -10z"/>
<path d="M2785 769 c-4 -6 -5 -13 -2 -16 8 -7 47 7 47 18 0 13 -37 11 -45 -2z"/>
<path d="M2782 499 c6 -17 86 -25 101 -10 8 8 -1 11 -30 11 -23 0 -49 3 -59 7
-12 4 -15 2 -12 -8z"/>
<path d="M2770 435 c0 -15 16 -19 55 -15 27 3 32 9 15 20 -24 16 -70 12 -70
-5z"/>
<path d="M2802 224 c3 -20 55 -37 64 -22 8 13 -5 24 -39 32 -24 6 -28 4 -25
-10z"/>
<path d="M2790 165 c0 -11 11 -15 40 -15 29 0 40 4 40 15 0 11 -11 15 -40 15
-29 0 -40 -4 -40 -15z"/>
</g>
</svg>
