<svg xmlns="http://www.w3.org/2000/svg" viewBox="1880.614 1120.5 137.887 104.088"><defs><style>.cls-1,.cls-2{fill:#c6691d;fill-rule:evenodd}.cls-2{fill:url(#radial-gradient)}.cls-3{filter:url(#Path_1214)}.cls-4{filter:url(#Path_1213)}</style><filter id="Path_1213" x="1895.124" y="1130.53" width="123.377" height="94.058" filterUnits="userSpaceOnUse"><feOffset dy="3"/><feGaussianBlur stdDeviation="1.5" result="blur"/><feFlood flood-opacity=".161"/><feComposite operator="in" in2="blur"/><feComposite in="SourceGraphic"/></filter><radialGradient id="radial-gradient" cx="69.576" cy="195.155" r="67.513" gradientUnits="userSpaceOnUse"><stop offset="0" stop-color="#18c0ec"/><stop offset="1" stop-color="#0083bb"/></radialGradient><filter id="Path_1214" x="1880.614" y="1120.5" width="135.629" height="86.308" filterUnits="userSpaceOnUse"><feOffset dy="3"/><feGaussianBlur stdDeviation="1.5" result="blur-2"/><feFlood flood-opacity=".161"/><feComposite operator="in" in2="blur-2"/><feComposite in="SourceGraphic"/></filter></defs><g id="Group_1033" data-name="Group 1033"><g class="cls-4"><path id="Path_1213-2" data-name="Path 1213" class="cls-1" d="M126.488 179.529c-.694 32.012-12.521 56.371-42.092 72.52l-.753.409-.747-.421a86.851 86.851 0 0 1-24.212-19.415q-.872-1.031-1.7-2.087c-8.8 10.8-6.942 17.026 12.681 12.953l.391.279c-94.855 31.325 37.586-68.02 80.905-76.367-8.187 3.616-16.434 7.707-24.5 12.129zM62.681 224.37q.705.344 1.441.67-.255-.8-.48-1.612zm2.609-2.525q.32 2.022.806 4.013a55.427 55.427 0 0 0 16.457 3.474q-.344-7.268-.557-14.613a52.278 52.278 0 0 1-7.8-.593c-3.267 2.668-6.254 5.258-8.893 7.707zm11.667-9.959q2.431.344 4.968.456-.053-2.111-.095-4.227-2.52 1.9-4.879 3.764zm7.9-6.005v6.519a49.728 49.728 0 0 0 16.736-2.964 58.313 58.313 0 0 0-2.9-13.178 335.958 335.958 0 0 0-13.807 9.616zm15.378-10.671a52.718 52.718 0 0 1 2.371 13.813 34.883 34.883 0 0 0 9.883-5.857 30.692 30.692 0 0 1-9.847 7.209 56.624 56.624 0 0 1-1.518 13.107 54.343 54.343 0 0 0 .593-12.669 47.46 47.46 0 0 1-16.884 3.859q-.107 7.422-.4 14.761 1.008.036 2.028.036a60.613 60.613 0 0 0 11.377-1.061 49.616 49.616 0 0 1-13.458 2.336q-.107 2.608-.231 5.2l-.267 8.3q1.032-.593 2.045-1.245a66 66 0 0 0 19.291-17.192c9.444-12.39 13.214-26.967 14.062-42.215a381.67 381.67 0 0 0-19.054 11.679zm-16.89 48.9l-.445-8.252q-.142-2.555-.267-5.116h-.368a50.34 50.34 0 0 1-15.449-2.371 44.782 44.782 0 0 0 1.565 4.328q2.371 2.259 4.891 4.3a87.194 87.194 0 0 0 10.078 7.114zM63.06 227q1.186 1.446 2.466 2.834l.836.889q-.67-1.423-1.251-2.893-1.049-.389-2.051-.83z" transform="translate(1863.03 964.63)"/></g><g class="cls-3"><path id="Path_1214-2" data-name="Path 1214" class="cls-2" d="M74.562 150.984a117.616 117.616 0 0 0 37.3 14.625 155.617 155.617 0 0 1 26.885-6.118c-15.094 3.557-31.255 10.374-44.629 16.154-45.056 19.462-79.648 44.509-59.877 48.8-.937.96-1.85 1.939-2.727 2.964-31.095 2.816-21.028-10.552 3.705-26.2a105.461 105.461 0 0 1-4.66-33.417v-1.275l1.251-.243c14.477-2.822 28.456-7.63 41.125-15.3l.812-.492.806.5zm25.463 18.7a146.43 146.43 0 0 1-7.025-2.1h-.042a121.059 121.059 0 0 1-19.232-8.892l-.178.1-.059-.036c-3.735 1.986-7.464 3.818-11.264 5.484 2.288 2.466 9.4 3.45 11.667 3.45 5.057 0 9.4-1.245 11.329-3.035a10.224 10.224 0 0 1-5.051 3.326q2.662 3.972 4.683 7.707A367.097 367.097 0 0 1 100 169.683zm-17.145 6.865c-1.512-2.7-3.172-5.335-4.932-7.938a24.529 24.529 0 0 1-4.067.534q.379 5.6.593 11.127 4.15-1.909 8.389-3.723zM71.823 181.5q.083-6.118.308-12.331a25.322 25.322 0 0 1-4.387-.445 58 58 0 0 0-8.075 13.736 33.377 33.377 0 0 0 5.928 2.022q3.1-1.512 6.254-2.964zm-9.623 4.65a33.941 33.941 0 0 1-3.521-1.186q-.664 1.778-1.221 3.61 2.371-1.186 4.743-2.413zm-8.086 4.15a57.782 57.782 0 0 1 2.294-6.391 23.879 23.879 0 0 1-6.7-4.855 44.028 44.028 0 0 0-6.166 14.494q.741.871 1.589 1.69a327.612 327.612 0 0 1 8.983-4.938zm-15.586-5.033a11.993 11.993 0 0 0 2.668 4.944 37.709 37.709 0 0 1 6.6-13.582 13.474 13.474 0 0 1-2.045-5.152 19.066 19.066 0 0 1-.172-1.263q-1.1.3-2.211.593v.047l-1.464.373q-2.128.539-4.268 1.02v1.186h-.056a101.453 101.453 0 0 0 .907 11.856zm9.563-15.775a13.042 13.042 0 0 0 1.684 4.689 55.958 55.958 0 0 1 9.7-8.768 120.234 120.234 0 0 1-11.406 4.1zm9.485 11.892a73.658 73.658 0 0 1 8.193-13.155 13.937 13.937 0 0 1-4.375-2.075 56.787 56.787 0 0 0-9.918 10.374 22.255 22.255 0 0 0 6.077 4.873z" transform="translate(1873 971.52)"/></g></g></svg>